<svg width="18" height="18" viewBox="0 0 18 18" xmlns="http://www.w3.org/2000/svg"><path d="M9 1a8.001 8.001 0 0 1 0 16 7.979 7.979 0 0 1-5.877-2.572l-.046-.015.009-.026A8.001 8.001 0 0 1 9 1zm.006 10.183c-1.833 0-3.471 1-4.337 2.528A6.374 6.374 0 0 0 9 15.4a6.377 6.377 0 0 0 4.339-1.696 4.982 4.982 0 0 0-4.333-2.52zM9 2.6a6.4 6.4 0 0 0-5.166 10.178 6.195 6.195 0 0 1 3.124-2.447 3.1 3.1 0 1 1 4.087-.002 6.187 6.187 0 0 1 3.128 2.44A6.4 6.4 0 0 0 9 2.6zm0 3.5a1.9 1.9 0 1 0 0 3.8 1.9 1.9 0 0 0 0-3.8z" fill="#2970FF" fill-rule="nonzero"/></svg>